# xmcd
#
# Track frame offsets: 
#        150
#        24113
#        50810
#        79865
#
# Disc length: 1326 seconds
#
# Revision: 1
# Processed by: cddbd v1.5.2PL0 Copyright (c) Steve Scherf et al.
# Submitted via: ExactAudioCopy v1.1
#
DISCID=27052c04
DTITLE=Fishmans - MELODY [2016 remaster]
DYEAR=1994
DGENRE=Rock
TTITLE0=Melody
TTITLE1=静かな朝
TTITLE2=オアシスへようこそ
TTITLE3=Wedding Baby
EXTD=YEAR: 1994
EXTT0=
EXTT1=
EXTT2=
EXTT3=
PLAYORDER=
